<svg xmlns="http://www.w3.org/2000/svg" viewBox="0 0 198.91851 134.93746"><defs><style>.cls-1{fill:#4b9659;}.cls-2{fill:#003f27;}.cls-3{fill:#fff;}</style></defs><g id="Layer_2" data-name="Layer 2"><g id="Layer_1-2" data-name="Layer 1"><path class="cls-1" d="M198.83985,74.86785c-.13709-.47889-1.26978-1.82856-1.44507-2.45362a4.92145,4.92145,0,0,0-.46191-1.191c-.1344-.23681-.05408-.65319-.26673-.79937l.00977-.00275L193.463,67.3582a41.01845,41.01845,0,0,1-.84607-4.59546,45.75417,45.75417,0,0,1,.04626-5.30908c.09815-1.09222.07422-3.55926.10352-4.14874.02905-.58948.01221-2.14856-.02271-2.42011s-.0072-.66681.86573-.69793,1.48608.06634,1.67846-.12635.59107-.40924.46118-.71606a.85779.85779,0,0,0-.219-.281L192.04517,45.741l-.00745.00324a.76017.76017,0,0,1,.12574.18848c.12976.30676-.2688.52337-.46118.716-.19251.19275-.80567.09521-1.67847.12634-.87305.03113-.90076.42645-.86572.698.03491.27155.05175,1.83063.0227,2.4201-.0293.58948-.00549,3.05646-.10351,4.14875a45.72443,45.72443,0,0,0-.04639,5.30908,40.62687,40.62687,0,0,0,.97192,5.077c.26734.92346.218.45495.53565.76648a2.18714,2.18714,0,0,1,.57617,1.2539c.16724.6817.77527.57257,1.13379.6388.35864.06628.47375-.21845.77685-.12269.303.09583.17432.58753.32154.84693a4.91709,4.91709,0,0,1,.46191,1.191c.17529.62506,1.30811,1.97473,1.44507,2.45355a1.246,1.246,0,0,1-.14063,1.13721,1.93591,1.93591,0,0,1-1.17993.90613c-.44726.14892-.988.82-.87915,1.17425a12.13179,12.13179,0,0,1-.123,1.84442c.01965.2876.67627.99781.9967,1.29669a2.72948,2.72948,0,0,1,.65845,1.28632c.15771.5473-.6637,1.26605-.84644,1.4726-.18274.20648.10742.7348-.59363.68176-.70129-.053-.51855,1.43622-.09668,1.78271a1.77206,1.77206,0,0,1,.64331,1.3086,14.51269,14.51269,0,0,0-.03662,1.551c-.0271.42346.22632.40778-.046.79035s-.43127.03888-1.00256.48523c-.57141.44641-.12244.74524-.54248,1.2254a1.998,1.998,0,0,0-.532,1.15c-.10779.45362-.03614.30774.06225.74372a3.40063,3.40063,0,0,0,.16284.75384c.14026.35346-.15649.2544-.3125.52759s.18018.19592.24829.41345c.06788.21747-.13647.304-.17651.46155-.03979.15759.25086.26312.38184.49158.13086.22851-.02344.32-.28565.35156a.823.823,0,0,0-.66137.34845c-.21241.27454.248.4071.33923.549.09119.14178-.00415.58258-.06506.90973-.06067.32727-.3678.57287-.47876.895a3.60093,3.60093,0,0,0-.05408,1.348,1.7594,1.7594,0,0,1,.02209,1.01092c-.13281.3321-.9779.34369-1.126.44135-.14771.09766-.08692,1.02618-.08045,1.28906s.5918.004.69373-.05487c.1018-.0589.00891.35681-.05286.51807-.06164.16119-.66467.46747-.76086.37591-.09644-.09155-.21631-.37976-.30249-.44336-.08594-.06372-.29615.1764-.45386.2555-.15784.0791-.07678.312.00293,1.24939a2.35508,2.35508,0,0,1-.63721,1.95117,12.05678,12.05678,0,0,0-1.63623,2.57727c-.11523.40375.136.68555.19214.93469.0564.24915-.17383.31122-.34521.2215-.17115-.08966-.27979-.42517-.39112-.37225-.04272.0202-.0686.12225-.09265.23864l-.85681-.858.80041,1.12171a.54526.54526,0,0,1-.08947.23632c-.12207.122-.55078.01368-.55811-.03a3.51006,3.51006,0,0,1,.17456-.53046c.0647-.17072-.06726-.19245-.26782-.19379-.20044-.00122-.37622.22864-.52844.15729-.152-.07141-.43885-.27722-.4386-.509.00061-.23175-.32471-.21741-.43994-.06421a5.122,5.122,0,0,0-.47486.54419c-.04712.12646.42273.62829.53272.76965.11.1413.5758.74347.46472.8089-.11108.06537-.4281-.08954-.57288-.11731-.14477-.02771-1.25585-.88312-1.50854-.977-.25293-.09393-.69348.32416-.78369.4704-.09046.14636.32275.64337.32129.8313a.54842.54842,0,0,1-.57.50274c-.3883-.00287-.66955.405-.94348.53388a.83863.83863,0,0,0-.374.44616c-.05469.07178-1.05359.13428-1.24756.26117-.19434.127-.08106.34028-.22107.55982-.14.2196-.51892.29-.60547.40027-.08643.11017-.03345.541-.02527.68176a8.52973,8.52973,0,0,0,.82251,1.337c.2041.27673-.21533.4093-.32275.61865a2.51384,2.51384,0,0,0-.04663.808.37048.37048,0,0,0-.04517-.025,4.59308,4.59308,0,0,0-.66638-.16419,1.01285,1.01285,0,0,0-.371.05127c-.09986.02887-.17847.05133-.21021.02967a.28358.28358,0,0,1-.08716-.08966.83361.83361,0,0,0-.65564-.35688,4.75347,4.75347,0,0,0-.658-.0227c-.0968.00049-.22473.00268-.32336-.00171a1.65548,1.65548,0,0,0-.27954-.86926.8204.8204,0,0,0-.55-.39563c-.05322-.01136-.08057-.01752-.1709-.11591a.62956.62956,0,0,1-.18139-.37939,2.35941,2.35941,0,0,0-.19654-.59589c-.06494-.13416-.11084-.25317-.15161-.35864a1.29165,1.29165,0,0,0-.66138-.82752,2.46459,2.46459,0,0,1-.34558-.22589,1.89847,1.89847,0,0,0-1.099-.46887,2.47493,2.47493,0,0,0-1.04663.33081c-.07812.041-.1416.07971-.17553.09131a.84914.84914,0,0,0-.48865.34625,1.60831,1.60831,0,0,1-.25549.25354,3.12187,3.12187,0,0,1-1.01807-.78937,3.42839,3.42839,0,0,0-1.60864-.85675,3.59006,3.59006,0,0,1-.668-.10547c-.11292-.22381-.40393-.2586-.70764-.295l-.27625-.03027a2.089,2.089,0,0,1-.8999-.28333,2.33134,2.33134,0,0,0-.99536-.196.65846.65846,0,0,1-.10327-.29639,1.08679,1.08679,0,0,0-.59375-.86242.37488.37488,0,0,0-.37671.64825.37535.37535,0,0,1,.2334.34778,1.37858,1.37858,0,0,0,.22583.59418.72944.72944,0,0,0,.75292.34564.98572.98572,0,0,1,.54761.1026,2.76914,2.76914,0,0,0,1.134.34594l.26147.02863c.06177.00726.11279.01379.15381.01965l.13367.108a2.92339,2.92339,0,0,0,1.13708.27746,3.01412,3.01412,0,0,1,1.10986.62781,3.60265,3.60265,0,0,0,1.33045.98383c.49231.1538.83618-.2367,1.04333-.47046.03223-.03693.07886-.08887.1084-.117a1.74184,1.74184,0,0,0,.345-.15515,2.02691,2.02691,0,0,1,.69629-.244,1.28934,1.28934,0,0,1,.65967.32648,3.20954,3.20954,0,0,0,.4585.29236c.1455.07062.18054.147.29.42651.047.121.10022.25641.17432.41181a1.59487,1.59487,0,0,1,.13867.42444,1.34921,1.34921,0,0,0,.363.73046.97127.97127,0,0,0,.58386.34491.42221.42221,0,0,1,.07263.08808.95212.95212,0,0,1,.14966.52282,1.11059,1.11059,0,0,0,.05713.33069c.13477.35028.5459.345,1.02149.34a3.7977,3.7977,0,0,1,.54443.01575c.10986.0158.14148.03161.15173.05188a1.02254,1.02254,0,0,0,.27552.27252.93218.93218,0,0,0,.835.071c.03881-.01074.07373-.02331.08532-.02655a3.19846,3.19846,0,0,1,.45594.11243c-.48706.415-1.37427,1.04852-1.49573,1.16205a11.26361,11.26361,0,0,0-.23633,1.82843c-.08606.32153-.41907.15137-.74585.23462a2.87671,2.87671,0,0,0-1.14441,1.57861c-.1449.59546.18823.76563-.11072,1.21466a15.63326,15.63326,0,0,1-1.83447,1.78363c-.276.23236-.8866.614-1.0011.91742a3.09331,3.09331,0,0,0,.257,1.6471,12.80865,12.80865,0,0,0,1.33569,2.1416,15.51245,15.51245,0,0,1-1.40258.83343c-.04676.00586-1.881.08942-2.02478.08594-.144-.00348-.44825-.19873-.62378-.14716-.17566.05152-.37354.3429-.57849.35157-.20472.0086-.41248-.37879-.54529-.45679a2.05693,2.05693,0,0,0-.8335-.09247c-.272.02094-.3042.28345-.43457.30438s-.26794-.393-.42444-.283c-.15637.11005-.17273.58789-.3761.66016s-.35644.26715-.51416.34625c-.15771.079-.17126-.08972-.42968-.28058a.89508.89508,0,0,0-.894-.06231c-.22217.13238-.34472.67559-.584.691-.23926.01532-.55444-.19294-.69971-.17994-.14526.01307-.6084.65876-.86731.637-.25891-.02173-1.19433-.61377-1.27771-.56476-.08325.049-.10327.37366-.37219.51654-.26892.14294-.64673.62677-1.14417.64386a.33562.33562,0,0,1-.23925-.11517l-.00269.003,3.55,3.38433-.00122-.0144a.36322.36322,0,0,0,.279.15411c.49756-.01709.87525-.501,1.14429-.64386.2688-.14288.28894-.46752.37219-.5166.08338-.049,1.01868.543,1.27771.56482.25879.02173.72193-.624.86719-.637.14526-.01306.46057.19519.69971.17987.23925-.01532.36181-.55859.5841-.69092a.8947.8947,0,0,1,.89392.06232c.25855.19079.272.35962.42969.28052s.31091-.27393.51428-.3462.21961-.55017.3761-.66015.29395.304.42432.283c.13037-.02094.16272-.28339.43457-.30432a2.05683,2.05683,0,0,1,.83349.0924c.13282.07807.34058.46546.54541.45679.20484-.00861.40284-.3.57837-.3515.17554-.05158.47986.14368.62378.14709.14392.00354,1.978-.08007,2.02491-.08593a15.52923,15.52923,0,0,0,1.40258-.83344,12.80558,12.80558,0,0,1-1.33569-2.1416,3.09219,3.09219,0,0,1-.25708-1.64709c.1145-.30347.7251-.68506,1.00122-.91736a15.64337,15.64337,0,0,0,1.83447-1.78363c.29883-.449-.03418-.61921.1106-1.21473a2.877,2.877,0,0,1,1.14453-1.57855c.32666-.08331.65979.08686.74585-.23462a11.236,11.236,0,0,1,.23633-1.82849c.12134-.11352,1.00854-.74707,1.4956-1.16205a1.14007,1.14007,0,0,0,.3368-.66955,2.51816,2.51816,0,0,1,.0465-.808c.10743-.20935.52686-.342.32276-.61871a8.52377,8.52377,0,0,1-.82251-1.337c-.00806-.14074-.061-.57153.02539-.6817.08655-.11023.46533-.18072.60547-.40027.14-.21954.02685-.4328.221-.55981.19409-.12695,1.19287-.18939,1.24755-.26123a.83929.83929,0,0,1,.37415-.44617c.2738-.1289.55505-.53674.94348-.53387a.54819.54819,0,0,0,.56982-.50275c.00159-.18793-.41162-.68494-.32128-.83124s.53076-.56433.78369-.47046c.2528.09394,1.36389.94941,1.50866.97712s.4618.18267.57288.11724-.35474-.6676-.46484-.80889c-.10987-.14136-.57972-.64319-.53272-.7696a5.1357,5.1357,0,0,1,.47486-.54425.31409.31409,0,0,1,.2517-.11017l.23.32233a.59019.59019,0,0,0,.10206.143l.009.01275.00049-.00042a1.06888,1.06888,0,0,0,.2854.20568.22088.22088,0,0,0,.19067-.02728l.43445.60883.0094-.00751c.041.04669.42847.13959.54516.02289.12232-.122.12708-.68579.23853-.73871s.22.28265.39124.37231c.17138.08966.40161.02759.34521-.22149-.05627-.24921-.30749-.531-.19226-.93476a12.06132,12.06132,0,0,1,1.63623-2.57727,2.35454,2.35454,0,0,0,.63721-1.95111c-.07959-.9375-.16065-1.17035-.00293-1.24945.15771-.079.36792-.31915.454-.25549.08618.0636.20617.35187.30236.44336.0962.09155.69922-.21466.761-.37592.0586-.153.14-.5227.06177-.51117l.01892-.01391-.73743-.7027c.005-.25348.02784-.47913.09632-.52441.14807-.09766.99316-.10932,1.12585-.44141a1.76064,1.76064,0,0,0-.022-1.01093,3.59823,3.59823,0,0,1,.05408-1.348c.111-.32214.41809-.56775.47876-.895.06091-.32721.15612-.768.06506-.90979a.22374.22374,0,0,0-.01611-.01727l.00451-.00336-.37732-.35943a.20266.20266,0,0,1,.04956-.16889.82318.82318,0,0,1,.66138-.34839c.26221-.03161.4165-.1231.28564-.35162-.13085-.22839-.42163-.33392-.38183-.49151.04-.1576.24463-.24408.17651-.46161a.19084.19084,0,0,0-.05981-.07886l.00476-.00348-.02649-.02533c-.00574-.00433-.00952-.01056-.01538-.01453l-.18067-.17212a.18706.18706,0,0,1,.0293-.11914c.156-.27319.45288-.17407.31262-.52758a3.38585,3.38585,0,0,1-.16284-.75379c-.09851-.436-.17-.2901-.06238-.74377a1.99954,1.99954,0,0,1,.532-1.15c.42016-.48022-.02881-.779.54248-1.22546.57129-.44635.73034-.10266,1.00268-.48523.27222-.38257.0188-.36682.0459-.79034a14.51179,14.51179,0,0,1,.03662-1.551,1.77229,1.77229,0,0,0-.64319-1.30865c-.422-.3465-.60461-1.8357.09656-1.78266.70117.053.41089-.47528.59375-.68182.18262-.20648,1.00415-.92529.84644-1.47253a2.72993,2.72993,0,0,0-.65845-1.28632c-.32056-.29889-.977-1.00909-.9967-1.29675a12.14841,12.14841,0,0,0,.123-1.84436c-.109-.35425.43176-1.02533.879-1.17426a1.93543,1.93543,0,0,0,1.17993-.90619A1.24558,1.24558,0,0,0,198.83985,74.86785Z"/><path class="cls-1" d="M178.05269.886c.20151.29562.1709.32147-.1042.84185s-.38183.26007-.43447.6622-.103.64137-.74342,1.08322a14.79959,14.79959,0,0,0-2.13271,2.07135,2.76246,2.76246,0,0,0,.25455,1.54376c.16733.31057.81712-.00623,1.14271-.13644a11.10221,11.10221,0,0,0,1.51071-1.20258c.207-.17891.656-.068.65313.19048-.00309.25839-.70306.82072-.96889,1.08566-.26583.265-.10013.50515.508.59332.60822.08822,1.719-1.14353,2.28855-1.40821.27184-.12631.71093-.36222,1.09863-.53867.06-.21384.17181-.0831.40925-.53226.2751-.52037.30572-.54623.10421-.84184a1.20484,1.20484,0,0,0-.29592-.2766l-3.302-3.14782Z"/><path class="cls-1" d="M188.3444,5.22065c-.10947.63531.28576,1.16409.48017,2.18014s.2719.607.42285,1.64294c.15106,1.03593.51891,1.21464.75238,2.54914a26.58783,26.58783,0,0,1,.05247,4.11979c.02058,1.32723-.19855,4.602-.298,5.14-.0992.538-.77082.73315-.80121,1.401-.03039.66777.27677.54736.25874.96114-.01779.41384-.52133.56729-.74228.75131-.22083.184-.20962.63462-.43026,1.20383a5.20926,5.20926,0,0,0-.4117,1.95487c-.05051.98771.23762,5.64654.29016,6.24649a10.76,10.76,0,0,1-.39462,4.02443c-.52825,1.42234-.17876,1.75188-.67739,2.10247a2.104,2.104,0,0,0-.9055,1.366,6.238,6.238,0,0,0,.68815,2.73549c.33746.72437,1.31911.90661,1.98338,1.172a5.574,5.574,0,0,0,.95432.24684,1.91081,1.91081,0,0,1,.86565-2.10843c.49863-.35059.14914-.68013.67739-2.10247a10.76,10.76,0,0,0,.39462-4.02443c-.05254-.59995-.34067-5.25878-.29016-6.24648a5.20927,5.20927,0,0,1,.4117-1.95488c.22064-.56921.20943-1.01987.43026-1.20383.22095-.184.72449-.33747.74228-.75131.018-.41378-.28913-.29337-.25874-.96114.03039-.66783.702-.863.80121-1.401.09944-.538.31856-3.81275.298-5.14a26.58769,26.58769,0,0,0-.05247-4.11978c-.23347-1.33451-.60131-1.51322-.75238-2.54915-.15095-1.03593-.22844-.6269-.42285-1.64294s-.58964-1.54483-.48017-2.18014a1.75814,1.75814,0,0,0-.22512-1.36689l-3.5484-3.38279-.00011.00532A1.92681,1.92681,0,0,1,188.3444,5.22065Z"/><path class="cls-1" d="M21.8623,54.63463V52.701L24.333,52.0028l-.4834.752v-15.04l.67187.80566-2.65918-.72558v-1.9336l5.98926-.13378H30.457a7.52554,7.52554,0,0,1,4.86035,1.34277,4.71233,4.71233,0,0,1,1.63867,3.86719,5.24759,5.24759,0,0,1-1.38281,3.7334,6.74853,6.74853,0,0,1-4.33789,1.79882l.02735-.42968a4.62077,4.62077,0,0,1,1.71875.32226,3.04371,3.04371,0,0,1,1.11425.81934,6.71222,6.71222,0,0,1,.81934,1.249l2.14844,4.13574-1.10059-.6709,2.4707.80567v1.93359H34.02832l-2.417-5.18359a15.49556,15.49556,0,0,0-.832-1.57129,1.82131,1.82131,0,0,0-.85938-.752,3.92218,3.92218,0,0,0-1.47754-.17481H27.0459l.64453-.53711v6.33887l-.51074-.7793,2.71289.72559v1.93359Zm5.82813-9.40039-.64453-.93945h2.22949a4.34044,4.34044,0,0,0,2.81934-.7793,2.8251,2.8251,0,0,0,.94043-2.30957,2.66921,2.66921,0,0,0-.752-2.01465,3.22027,3.22027,0,0,0-2.30957-.72461H27.0459l.64453-.59082Z"/><path class="cls-1" d="M44.959,52.43248l-.26855-.32226,2.06836.59082v1.93359h-7.3584V52.701l2.06738-.59082-.26855.32226V42.62975l.24219.24121-2.041-.56348V40.37389l5.55859-.18848Zm-1.9873-14.34179a2.247,2.247,0,0,1-1.59766-.56446,2.4995,2.4995,0,0,1,.02637-3.29,2.34842,2.34842,0,0,1,1.59863-.5498,2.259,2.259,0,0,1,1.55762.5498,2.10213,2.10213,0,0,1,.61719,1.65235,2.072,2.072,0,0,1-.63086,1.65137A2.304,2.304,0,0,1,42.97168,38.09069Z"/><path class="cls-1" d="M55.35352,40.40026l6.06933-.21485v1.90723l-1.53125.6709.51074-.56348L55.9707,54.68834H51.56641L47.67188,42.33385l.5371.42969-1.61132-.42969V40.40026l6.58007-.21485v1.90723l-1.96093.59082.26855-.4834,2.74024,10.09766h-.2959l3.03515-9.88281.21485.29492-1.82617-.376Z"/><path class="cls-1" d="M68.29785,54.9569a6.89546,6.89546,0,0,1-3.42383-.81934,5.69145,5.69145,0,0,1-2.29687-2.43066,8.59255,8.59255,0,0,1-.832-3.97461,9.21445,9.21445,0,0,1,.87207-4.16309,6.24483,6.24483,0,0,1,2.458-2.67187,7.255,7.255,0,0,1,3.73339-.92676,6.28142,6.28142,0,0,1,3.41016.833,4.9329,4.9329,0,0,1,1.93359,2.26855,8.118,8.118,0,0,1,.61817,3.23633q0,.457-.04.90039-.041.44238-.12109.98047H64.7793V45.95983h6.60742l-.4834.34863a6.81392,6.81392,0,0,0-.18848-1.89258,2.43045,2.43045,0,0,0-.75195-1.27636,2.21256,2.21256,0,0,0-1.47656-.45606,2.34,2.34,0,0,0-1.666.60352,3.32911,3.32911,0,0,0-.91308,1.625,8.876,8.876,0,0,0-.26856,2.25586,9.05413,9.05413,0,0,0,.33594,2.5791,3.46031,3.46031,0,0,0,1.1416,1.77246,3.25084,3.25084,0,0,0,2.09473.64453,6.52759,6.52759,0,0,0,1.93359-.33594,10.39559,10.39559,0,0,0,2.20215-1.00683l1.28906,2.01367a12.70607,12.70607,0,0,1-3.19531,1.59863A10.15337,10.15337,0,0,1,68.29785,54.9569Z"/><path class="cls-1" d="M76.43652,54.63463V52.701l2.17481-.61817-.376.56446V42.33385l.42969.64453-2.22852-.6709V40.37389l4.72657-.21484.48339,2.55078-.48339-.10742a11.07337,11.07337,0,0,1,2.39062-1.94727,4.955,4.955,0,0,1,2.52441-.68457,6.84988,6.84988,0,0,1,1.82618.26855l-.24219,4.96875H85.4873L85.084,42.30748l.34961.72461a2.08048,2.08048,0,0,0-.33593-.08007,2.26532,2.26532,0,0,0-.33594-.02735,3.1,3.1,0,0,0-1.65137.51074,5.02816,5.02816,0,0,0-1.41015,1.31543l.29492-1.0205v8.917l-.42969-.56446,2.65918.61817v1.93359Z"/><path class="cls-1" d="M92.84473,43.91881a1.14138,1.14138,0,0,0,.55078,1.00684,5.63969,5.63969,0,0,0,1.39648.63086q.84669.26952,1.79981.57812a10.8354,10.8354,0,0,1,1.79882.76465,3.91377,3.91377,0,0,1,1.38379,1.23633,3.47989,3.47989,0,0,1,.53711,2.01367,4.11325,4.11325,0,0,1-.85937,2.67285,5.229,5.229,0,0,1-2.33692,1.59766,9.60481,9.60481,0,0,1-3.30371.53711,15.07458,15.07458,0,0,1-2.30957-.1875q-1.20849-.189-2.4707-.51074l.18848-4.05567H91.583l.29492,2.36328-.32227-.45605a8.26359,8.26359,0,0,0,1.18164.25488,7.96606,7.96606,0,0,0,1.15528.09375,4.27776,4.27776,0,0,0,1.27539-.1875,2.63931,2.63931,0,0,0,.99414-.53711,1.17066,1.17066,0,0,0,.38965-.91308,1.21773,1.21773,0,0,0-.52442-1.04786,5.172,5.172,0,0,0-1.36914-.6582q-.84667-.28125-1.78613-.56348a8.53388,8.53388,0,0,1-1.78613-.76562,4.09677,4.09677,0,0,1-1.38282-1.27539,3.69671,3.69671,0,0,1-.5371-2.1084,3.95506,3.95506,0,0,1,.77832-2.53809,4.48106,4.48106,0,0,1,2.082-1.43652,8.58264,8.58264,0,0,1,2.85937-.457,14.601,14.601,0,0,1,2.33692.20117q1.23486.20216,2.55175.55078l-.18847,3.626H97.25l-.457-2.12207.51074.53711a10.05741,10.05741,0,0,0-2.25683-.29492,3.00231,3.00231,0,0,0-1.584.376A1.18961,1.18961,0,0,0,92.84473,43.91881Z"/><path class="cls-1" d="M107.53613,52.43248l-.26855-.32226,2.06836.59082v1.93359h-7.3584V52.701l2.06738-.59082-.26855.32226V42.62975l.24218.24121-2.041-.56348V40.37389l5.55859-.18848Zm-1.9873-14.34179a2.247,2.247,0,0,1-1.59766-.56446,2.4995,2.4995,0,0,1,.02637-3.29,2.34842,2.34842,0,0,1,1.59863-.5498,2.259,2.259,0,0,1,1.55762.5498,2.10213,2.10213,0,0,1,.61719,1.65235,2.072,2.072,0,0,1-.63086,1.65137A2.304,2.304,0,0,1,105.54883,38.09069Z"/><path class="cls-1" d="M115.915,54.9569a4.7543,4.7543,0,0,1-2.75293-.81934,5.41367,5.41367,0,0,1-1.87988-2.43066,10.02423,10.02423,0,0,1-.68457-3.9209q0-3.97412,2.01464-5.89551a7.88815,7.88815,0,0,1,5.667-1.91992q.59032,0,1.18164.05371a10.92454,10.92454,0,0,1,1.23535.18848l-.69824.42968V36.2108l.26855.376-2.20215-.72559V33.95494l5.69336-.21484V52.53991l-.457-.53711,2.25684.69824v1.90625l-4.72754.21582-.4834-2.31055.376.13477a9.37077,9.37077,0,0,1-2.34961,1.73242A5.48225,5.48225,0,0,1,115.915,54.9569Zm1.45117-2.7666a3.30849,3.30849,0,0,0,1.47656-.38868A7.368,7.368,0,0,0,120.4541,50.66l-.456,1.12793v-9.6416l.456.85938a8.66327,8.66327,0,0,0-2.28222-.34961,3.12873,3.12873,0,0,0-2.78028,1.27636,6.1313,6.1313,0,0,0-.873,3.50489,8.16792,8.16792,0,0,0,.34961,2.52441,3.75621,3.75621,0,0,0,.98047,1.65137A2.16285,2.16285,0,0,0,117.36621,52.1903Z"/><path class="cls-1" d="M133.3457,54.9569a6.89542,6.89542,0,0,1-3.42382-.81934A5.69141,5.69141,0,0,1,127.625,51.7069a8.59255,8.59255,0,0,1-.832-3.97461,9.21445,9.21445,0,0,1,.87207-4.16309,6.24489,6.24489,0,0,1,2.458-2.67187,7.255,7.255,0,0,1,3.7334-.92676,6.28141,6.28141,0,0,1,3.41015.833,4.93292,4.93292,0,0,1,1.9336,2.26855,8.11815,8.11815,0,0,1,.61816,3.23633q0,.457-.04.90039-.041.44238-.12109.98047h-9.83008V45.95983h6.60742l-.4834.34863a6.81432,6.81432,0,0,0-.18847-1.89258,2.43053,2.43053,0,0,0-.752-1.27636,2.21254,2.21254,0,0,0-1.47656-.45606,2.34,2.34,0,0,0-1.666.60352,3.32919,3.32919,0,0,0-.91308,1.625,8.876,8.876,0,0,0-.26856,2.25586,9.05413,9.05413,0,0,0,.33594,2.5791,3.46031,3.46031,0,0,0,1.1416,1.77246,3.25084,3.25084,0,0,0,2.09473.64453,6.52759,6.52759,0,0,0,1.93359-.33594,10.39559,10.39559,0,0,0,2.20215-1.00683l1.28906,2.01367a12.70607,12.70607,0,0,1-3.19531,1.59863A10.15337,10.15337,0,0,1,133.3457,54.9569Z"/><path class="cls-1" d="M0,81.63463V79.701l2.4707-.69824-.4834.752v-15.04l.67188.80566L0,64.79479v-1.9336l5.98926-.13378H8.59473a7.52558,7.52558,0,0,1,4.86035,1.34277,4.71236,4.71236,0,0,1,1.63867,3.86719,5.24763,5.24763,0,0,1-1.38281,3.7334A6.74855,6.74855,0,0,1,9.373,73.46959l.02734-.42968a4.62073,4.62073,0,0,1,1.71875.32226,3.04367,3.04367,0,0,1,1.11426.81934,6.71169,6.71169,0,0,1,.81933,1.249l2.14844,4.13574-1.10058-.6709,2.4707.80567v1.93359H12.166L9.749,76.451a15.49353,15.49353,0,0,0-.832-1.57129,1.82133,1.82133,0,0,0-.85937-.752A3.92218,3.92218,0,0,0,6.58008,73.953H5.18359l.64453-.53711v6.33887l-.51074-.7793,2.71289.72559v1.93359Zm5.82812-9.40039-.64453-.93945h2.2295a4.34039,4.34039,0,0,0,2.81933-.7793,2.82507,2.82507,0,0,0,.94043-2.30957,2.66921,2.66921,0,0,0-.752-2.01465,3.22028,3.22028,0,0,0-2.30957-.72461H5.18359l.64453-.59082Z"/><path class="cls-1" d="M23.84961,81.9569a6.89546,6.89546,0,0,1-3.42383-.81934,5.69139,5.69139,0,0,1-2.29687-2.43066,8.59255,8.59255,0,0,1-.832-3.97461A9.21432,9.21432,0,0,1,18.169,70.5692a6.24487,6.24487,0,0,1,2.458-2.67187,7.25507,7.25507,0,0,1,3.7334-.92676,6.28145,6.28145,0,0,1,3.41016.833,4.9329,4.9329,0,0,1,1.93359,2.26855,8.118,8.118,0,0,1,.61817,3.23633q0,.457-.04.90039-.041.44238-.1211.98047H20.33105V72.95983h6.60743l-.4834.34863a6.81392,6.81392,0,0,0-.18848-1.89258,2.43045,2.43045,0,0,0-.752-1.27636,2.21256,2.21256,0,0,0-1.47656-.45606,2.34,2.34,0,0,0-1.666.60352,3.3292,3.3292,0,0,0-.91309,1.625,8.876,8.876,0,0,0-.26855,2.25586,9.05377,9.05377,0,0,0,.33594,2.5791A3.46031,3.46031,0,0,0,22.668,78.5194a3.25084,3.25084,0,0,0,2.09473.64453,6.52759,6.52759,0,0,0,1.93359-.33594,10.39582,10.39582,0,0,0,2.20215-1.00683l1.28906,2.01367a12.70607,12.70607,0,0,1-3.19531,1.59863A10.15337,10.15337,0,0,1,23.84961,81.9569Z"/><path class="cls-1" d="M37.22363,81.9569A3.48915,3.48915,0,0,1,34.417,80.84264a4.98733,4.98733,0,0,1-.95312-3.31738V69.30748l.4834.4834H31.36914V67.77623L34.001,67.159l-.53711.64453V64.15026l3.78711-.6709v4.32422l-.40332-.51074h4.083l-.05371,2.498H36.84766l.40332-.4834v7.708a2.855,2.855,0,0,0,.376,1.665,1.30953,1.30953,0,0,0,1.12793.50977,3.53086,3.53086,0,0,0,.95313-.14746c.34961-.09766.72949-.22852,1.1416-.38965l.69824,2.06836A9.01617,9.01617,0,0,1,37.22363,81.9569Z"/><path class="cls-1" d="M48.1543,79.43248l-.26856-.32226,2.06836.59082v1.93359H42.5957V79.701l2.06739-.59082-.26856.32226V69.62975l.24219.24121-2.041-.56348V67.37389l5.5586-.18848ZM46.167,65.09069a2.247,2.247,0,0,1-1.59765-.56446,2.49948,2.49948,0,0,1,.02636-3.29,2.34843,2.34843,0,0,1,1.59864-.5498,2.259,2.259,0,0,1,1.55761.5498,2.1021,2.1021,0,0,1,.61719,1.65235,2.072,2.072,0,0,1-.63086,1.65137A2.304,2.304,0,0,1,46.167,65.09069Z"/><path class="cls-1" d="M51.13672,81.63463V79.701l2.1748-.61817-.376.56446V69.33385l.42968.64453-2.22851-.6709V67.37389l4.72656-.21484.4834,2.55078-.4834-.10742a11.07365,11.07365,0,0,1,2.39063-1.94727,4.955,4.955,0,0,1,2.52441-.68457,6.84981,6.84981,0,0,1,1.82617.26855l-.24219,4.96875H60.1875l-.40332-2.90039.34961.72461a2.0806,2.0806,0,0,0-.33594-.08007,2.26521,2.26521,0,0,0-.33594-.02735,3.1,3.1,0,0,0-1.65136.51074,5.0282,5.0282,0,0,0-1.41016,1.31543l.29492-1.0205v8.917l-.42969-.56446,2.65918.61817v1.93359Z"/><path class="cls-1" d="M69.90918,81.9569a6.89546,6.89546,0,0,1-3.42383-.81934,5.69139,5.69139,0,0,1-2.29687-2.43066,8.59255,8.59255,0,0,1-.832-3.97461,9.21432,9.21432,0,0,1,.87207-4.16309,6.24487,6.24487,0,0,1,2.458-2.67187,7.25507,7.25507,0,0,1,3.7334-.92676,6.28145,6.28145,0,0,1,3.41016.833,4.9329,4.9329,0,0,1,1.93359,2.26855,8.118,8.118,0,0,1,.61817,3.23633q0,.457-.04.90039-.041.44238-.1211.98047H66.39062V72.95983h6.60743l-.4834.34863a6.81392,6.81392,0,0,0-.18848-1.89258,2.43045,2.43045,0,0,0-.752-1.27636,2.21256,2.21256,0,0,0-1.47656-.45606,2.34,2.34,0,0,0-1.666.60352,3.3292,3.3292,0,0,0-.91309,1.625A8.876,8.876,0,0,0,67.25,74.16784a9.05377,9.05377,0,0,0,.33594,2.5791,3.46031,3.46031,0,0,0,1.1416,1.77246,3.25084,3.25084,0,0,0,2.09473.64453,6.52759,6.52759,0,0,0,1.93359-.33594A10.39582,10.39582,0,0,0,74.958,77.82116l1.28906,2.01367a12.70607,12.70607,0,0,1-3.19531,1.59863A10.15337,10.15337,0,0,1,69.90918,81.9569Z"/><path class="cls-1" d="M91.87793,69.46862l-.53711.13379a9.14385,9.14385,0,0,1,2.73926-1.97364,6.70008,6.70008,0,0,1,2.7666-.6582,3.89774,3.89774,0,0,1,2.833,1.11426,4.597,4.597,0,0,1,1.1416,3.4248v8.084l-.34863-.53711,2.14843.64453v1.93359H95.55762V79.701l1.96-.59082-.45606.56347v-7.332a2.90589,2.90589,0,0,0-.52343-1.90625,1.6962,1.6962,0,0,0-1.35645-.61816,3.5387,3.5387,0,0,0-1.55762.42969,7.05359,7.05359,0,0,0-1.71972,1.26269l.26953-.833a1.6587,1.6587,0,0,1,.05371.38965v8.52735l-.34961-.53711,1.87988.64453v1.93359H86.93652V79.701l1.96-.59082-.42968.56347v-7.332a2.84953,2.84953,0,0,0-.53711-1.90625,1.70614,1.70614,0,0,0-1.34278-.61816,3.72346,3.72346,0,0,0-1.55761.40332,5.94377,5.94377,0,0,0-1.665,1.208l.24121-.56348v8.80859l-.34863-.56347,1.87988.59082v1.93359H78.04688V79.701l2.25585-.64453-.457.53711V69.36119l.457.61719-2.25585-.6709V67.37389l4.72656-.21484.4834,2.57812-.4834-.18848a9.30592,9.30592,0,0,1,2.69922-1.91992,6.60686,6.60686,0,0,1,2.75293-.6582,4.06471,4.06471,0,0,1,2.20214.60449A3.64351,3.64351,0,0,1,91.87793,69.46862Z"/><path class="cls-1" d="M110.27539,81.9569a6.89546,6.89546,0,0,1-3.42383-.81934,5.69145,5.69145,0,0,1-2.29687-2.43066,8.59255,8.59255,0,0,1-.832-3.97461,9.21445,9.21445,0,0,1,.87207-4.16309,6.24487,6.24487,0,0,1,2.458-2.67187,7.25507,7.25507,0,0,1,3.7334-.92676,6.28142,6.28142,0,0,1,3.41016.833,4.9329,4.9329,0,0,1,1.93359,2.26855,8.118,8.118,0,0,1,.61817,3.23633q0,.457-.04.90039-.041.44238-.1211.98047h-9.83007V72.95983h6.60742l-.4834.34863a6.81392,6.81392,0,0,0-.18848-1.89258,2.43045,2.43045,0,0,0-.75195-1.27636,2.21256,2.21256,0,0,0-1.47656-.45606,2.34,2.34,0,0,0-1.666.60352,3.32911,3.32911,0,0,0-.91308,1.625,8.87555,8.87555,0,0,0-.26856,2.25586,9.05413,9.05413,0,0,0,.33594,2.5791,3.46031,3.46031,0,0,0,1.1416,1.77246,3.25084,3.25084,0,0,0,2.09473.64453,6.52759,6.52759,0,0,0,1.93359-.33594,10.39559,10.39559,0,0,0,2.20215-1.00683l1.28906,2.01367a12.70607,12.70607,0,0,1-3.19531,1.59863A10.15337,10.15337,0,0,1,110.27539,81.9569Z"/><path class="cls-1" d="M118.41309,81.63463V79.701l2.25586-.64453-.457.53711V69.36119l.457.61719-2.25586-.6709V67.37389l4.72656-.21484.4834,2.57812-.4834-.18848a8.74459,8.74459,0,0,1,2.73926-1.94726,6.946,6.946,0,0,1,2.7666-.63086,4.24662,4.24662,0,0,1,3.03418,1.1416,4.458,4.458,0,0,1,1.18261,3.45117v8.03028l-.3496-.53711,2.14843.64453v1.93359h-7.1709V79.701l2.041-.59082-.42969.56347V72.369a2.76056,2.76056,0,0,0-.57715-1.9336,1.97916,1.97916,0,0,0-1.51757-.61816,3.76373,3.76373,0,0,0-1.584.40332,6.31021,6.31021,0,0,0-1.69238,1.208l.24121-.56348v8.80859l-.34863-.56347,1.96093.59082v1.93359Z"/><path class="cls-1" d="M140.94531,81.9569a3.48915,3.48915,0,0,1-2.80664-1.11426,4.98733,4.98733,0,0,1-.95312-3.31738V69.30748l.4834.4834h-2.57813V67.77623l2.63184-.61718-.53711.64453V64.15026l3.78711-.6709v4.32422l-.40332-.51074h4.083l-.05371,2.498h-4.02929l.40332-.4834v7.708a2.855,2.855,0,0,0,.376,1.665,1.30953,1.30953,0,0,0,1.12793.50977,3.53092,3.53092,0,0,0,.95313-.14746c.34961-.09766.72949-.22852,1.1416-.38965l.69824,2.06836A9.0162,9.0162,0,0,1,140.94531,81.9569Z"/><path class="cls-1" d="M69.74707,108.662,64.05371,91.79479l.88672.67187-2.44434-.67187v-1.9336l7.9502-.13378V91.661l-2.63281.75195.457-.94043,4.10937,13.832h-.53711l4.48438-13.61718.2959.75195-2.44434-.64453v-1.9336l7.1709-.13378V91.661l-2.417.72461.88672-.6709L73.83008,108.662Z"/><path class="cls-1" d="M86.8291,106.43248l-.26855-.32226,2.06836.59082v1.93359h-7.3584V106.701l2.06738-.59082-.26855.32226V96.62975l.24218.24121-2.041-.56348V94.37389l5.55859-.18848ZM84.8418,92.09069a2.247,2.247,0,0,1-1.59766-.56446,2.4995,2.4995,0,0,1,.02637-3.29,2.34842,2.34842,0,0,1,1.59863-.5498,2.259,2.259,0,0,1,1.55762.5498,2.10213,2.10213,0,0,1,.61719,1.65235,2.072,2.072,0,0,1-.63086,1.65137A2.304,2.304,0,0,1,84.8418,92.09069Z"/><path class="cls-1" d="M95.18066,106.43248l-.26855-.32226,2.06836.59082v1.93359h-7.332V106.701l2.06836-.59082-.2959.32226v-16.249l.24219.26856-2.01465-.56348v-1.9336l5.53222-.21484Z"/><path class="cls-1" d="M103.55957,106.43248l-.26855-.32226,2.06836.59082v1.93359h-7.332V106.701l2.06836-.59082-.2959.32226v-16.249l.24219.26856-2.01465-.56348v-1.9336l5.53223-.21484Z"/><path class="cls-1" d="M118.54688,106.72741l-.51075-.77832,2.30957.752v1.93359l-4.69922.18848-.51074-2.55176.26856.08008a7.64588,7.64588,0,0,1-2.34961,1.94726,5.60221,5.60221,0,0,1-2.5918.65821,3.90707,3.90707,0,0,1-2.84668-1.10156,4.22769,4.22769,0,0,1-1.12793-3.16895,4.03745,4.03745,0,0,1,.65723-2.43066,3.68026,3.68026,0,0,1,1.9209-1.30274,10.14895,10.14895,0,0,1,3.06152-.40234h2.90039l-.24121.29492V99.07311a2.30918,2.30918,0,0,0-.60449-1.79883,2.56843,2.56843,0,0,0-1.75977-.53711,8.69415,8.69415,0,0,0-1.22168.09375,7.92548,7.92548,0,0,0-1.38281.33594l.376-.42969-.34961,2.22852h-2.33594l-.21484-3.97461q1.82519-.48341,3.34375-.752a16.06942,16.06942,0,0,1,2.77929-.26855,5.90311,5.90311,0,0,1,3.81348,1.07422,4.04994,4.04994,0,0,1,1.31641,3.33008Zm-8.27247-2.38965a2.00394,2.00394,0,0,0,.47071,1.45019,1.56105,1.56105,0,0,0,1.168.4834,3.19119,3.19119,0,0,0,1.51757-.42969,7.15632,7.15632,0,0,0,1.54395-1.15527l-.1875.64453V102.2694l.26855.26855h-2.31054a3.1256,3.1256,0,0,0-1.9336.44336A1.656,1.656,0,0,0,110.27441,104.33776Z"/><path class="cls-1" d="M127.65039,115.13366a10.88525,10.88525,0,0,1-4.98144-.88575,2.83151,2.83151,0,0,1-1.65137-2.63183,3.00013,3.00013,0,0,1,.92578-2.24317,7.02156,7.02156,0,0,1,2.69922-1.49023v.752a3.37449,3.37449,0,0,1-1.70508-.52344,1.38887,1.38887,0,0,1-.63086-1.19531,1.596,1.596,0,0,1,.09375-.53711c.0625-.17871.16113-.41211.29492-.69824a10.47515,10.47515,0,0,1,.57813-1.03418q.375-.605.93945-1.54394l.02734.61718a4.69793,4.69793,0,0,1-2.001-1.74511,4.92845,4.92845,0,0,1-.71192-2.68653,4.792,4.792,0,0,1,1.70508-3.90722,7.23,7.23,0,0,1,4.74024-1.41016,8.49749,8.49749,0,0,1,3.707.72559l-.85938-.13477,4.458-.1875.02637,2.06738-2.1211.42969.26856-.42969a3.774,3.774,0,0,1,.59082,1.12793,4.68856,4.68856,0,0,1,.21484,1.47754,4.82207,4.82207,0,0,1-1.74609,3.93457,7.12638,7.12638,0,0,1-4.67285,1.43653,9.52709,9.52709,0,0,1-2.68555-.376l.59082-.376-.457,2.90039L124.75,106.244h5.37207a6.66285,6.66285,0,0,1,4.0957,1.06152,3.61044,3.61044,0,0,1,1.38282,3.04785,3.93153,3.93153,0,0,1-1.98731,3.5586A11.58857,11.58857,0,0,1,127.65039,115.13366Zm.32227-2.63184a7.70633,7.70633,0,0,0,3.10254-.456,1.44549,1.44549,0,0,0,.95312-1.34278,1.38122,1.38122,0,0,0-.64453-1.26269,3.5136,3.5136,0,0,0-1.85254-.40235h-4.64648l.832-.21484a2.59705,2.59705,0,0,0-1.42285,2.09473,1.2783,1.2783,0,0,0,.88574,1.18164A7.178,7.178,0,0,0,127.97266,112.50182Zm-.16114-10.6084a2.72615,2.72615,0,0,0,2.01465-.69824,2.80547,2.80547,0,0,0,.69824-2.06836A2.27982,2.27982,0,0,0,127.919,96.495a2.60837,2.60837,0,0,0-1.94629.67188,2.76589,2.76589,0,0,0-.65821,2.01367,2.90527,2.90527,0,0,0,.63086,2.01465A2.38731,2.38731,0,0,0,127.81152,101.89342Z"/><path class="cls-1" d="M143.0127,108.9569a6.89543,6.89543,0,0,1-3.42383-.81934,5.69141,5.69141,0,0,1-2.29688-2.43066,8.59255,8.59255,0,0,1-.832-3.97461,9.21445,9.21445,0,0,1,.87207-4.16309,6.24489,6.24489,0,0,1,2.458-2.67187,7.255,7.255,0,0,1,3.7334-.92676,6.28141,6.28141,0,0,1,3.41015.833,4.93286,4.93286,0,0,1,1.9336,2.26855,8.118,8.118,0,0,1,.61816,3.23633q0,.457-.04.90039-.041.44238-.12109.98047h-9.83008V99.95983h6.60742l-.4834.34863a6.81432,6.81432,0,0,0-.18847-1.89258,2.43053,2.43053,0,0,0-.752-1.27636,2.21253,2.21253,0,0,0-1.47656-.45606,2.34,2.34,0,0,0-1.666.60352,3.32912,3.32912,0,0,0-.91309,1.625,8.876,8.876,0,0,0-.26855,2.25586,9.05415,9.05415,0,0,0,.33593,2.5791,3.46044,3.46044,0,0,0,1.1416,1.77246,3.25086,3.25086,0,0,0,2.09473.64453,6.5277,6.5277,0,0,0,1.9336-.33594,10.39552,10.39552,0,0,0,2.20214-1.00683l1.28907,2.01367a12.70613,12.70613,0,0,1-3.19532,1.59863A10.15336,10.15336,0,0,1,143.0127,108.9569Z"/><path class="cls-2" d="M195.25388,71.45606c-.13714-.47886-1.26989-1.82853-1.44516-2.45358a4.92584,4.92584,0,0,0-.46179-1.191c-.14743-.25942-.01869-.75111-.32171-.84694-.303-.09576-.41809.18893-.77673.1227s-.96657.04286-1.13386-.63879a2.188,2.188,0,0,0-.57611-1.25394c-.31773-.31153-.26852.157-.53578-.76645a40.65154,40.65154,0,0,1-.97184-5.07706,45.72685,45.72685,0,0,1,.04632-5.30907c.0981-1.09226.07431-3.55929.10348-4.14876s.01227-2.14855-.02269-2.4201-.0072-.66684.86571-.698,1.486.06638,1.67853-.12634c.19247-.19265.591-.40924.46127-.716a1.37633,1.37633,0,0,0-.9935-.66109,16.512,16.512,0,0,1-2.55834-.5c-.66428-.26535-1.6458-.44759-1.98326-1.172a6.23639,6.23639,0,0,1-.68815-2.7355,2.10307,2.10307,0,0,1,.9055-1.366c.49857-.35059.149-.68013.67727-2.10246a10.75875,10.75875,0,0,0,.39462-4.02443c-.05248-.6-.34067-5.25878-.2901-6.24649a5.20932,5.20932,0,0,1,.4117-1.95488c.2207-.5692.20949-1.01987.43032-1.20383.22089-.184.72443-.33746.74228-.7513.01791-.41379-.28913-.29338-.2588-.96115.03039-.66783.702-.863.80127-1.401s.3185-3.81276.298-5.14a26.60263,26.60263,0,0,0-.05247-4.11978c-.2336-1.33451-.60132-1.51322-.75238-2.54915-.151-1.03593-.2285-.62689-.42291-1.64294s-.58958-1.54483-.48017-2.18013c.10947-.63531-.05276-1.364-.29169-1.40193a1.95961,1.95961,0,0,0-1.009.22555c-.33392.17114-.813.80313-1.37368,1.17407s-.87075.74816-1.5984.70369c-.72759-.04454-.45436-.38958-.77484-.43167-.32042-.04215-.48414.17489-.67428.33616-.19013.16134-.68757.05472-.70242-.28937-.01479-.3441-1.32386.40873-1.8935.67342-.56958.26468-1.68039,1.49643-2.28855,1.4082-.60809-.08816-.77379-.32832-.508-.59331s.96586-.82727.96883-1.08567-.446-.36938-.653-.19047a11.11006,11.11006,0,0,1-1.51077,1.20257c-.32553.13021-.97532.447-1.14271.13645a2.7624,2.7624,0,0,1-.25455-1.54377,14.80279,14.80279,0,0,1,2.13271-2.07134c.64039-.44185.69079-.6811.74342-1.08323s.1593-.14176.43447-.6622c.2751-.52037.30577-.54623.10426-.84184a3.58367,3.58367,0,0,0-.98194-.702,1.11181,1.11181,0,0,0-1.14135-.05927c-.53974.20759-1.1003.58481-1.5533.50212s-.61164-.41692-1.07279-.324c-.46114.09292-1.116.961-1.61074.96078s-.835-.58676-1.5655-.49343c-.73051.09334-.851.91526-1.29847,1.429a2.6084,2.6084,0,0,0-.76,1.36235,4.743,4.743,0,0,1-.01052,1.84159,6.09827,6.09827,0,0,0-.55972,2.23575c.09409.38285.47925.57059.33368.95-.14558.37935-1.49925,2.04307-1.6373,2.34707-.138.30407.07143,3.43667-.06227,3.72652S164.927,16.551,164.722,17.126c-.20487.575-.3782,2.29229-.50711,2.77459-.129.48236-.50423.5011-.69686,1.44534-.19257.94429.2294,1.66656-.02557,1.99228a22.80546,22.80546,0,0,1-2.14513,1.38119c-.38718.29775-.35531.57249-.48414,1.18325a8.30923,8.30923,0,0,1-.36039,1.37432c-.19329.53714.14188.6666-.23,1.07668-.37181.41013-.841.43432-.90407.91816-.06312.48378-.603.93564-.99517,1.28364a1.19883,1.19883,0,0,0-.35254,1.43671,4.57917,4.57917,0,0,1,.4758,1.75439c-.06312.23327-.745-.23825-1.00312-.545a2.57927,2.57927,0,0,0-1.50182-.95219,2.43152,2.43152,0,0,1-1.469-.63986c-.423-.39029-.61574-1.087-1.03806-1.19548s-.4268.21729-1.02582.30735a1.45381,1.45381,0,0,1-1.44268-.33988,3.936,3.936,0,0,0-1.94553-1.41712c-.69069-.07048-.40492.08524-1.31445.53379a5.79968,5.79968,0,0,0-1.52.83324c-.17607.22357-.04609.665-.39755.88669s-.929.16721-1.07995.39644a2.79213,2.79213,0,0,0-.5079,1.48447l7.67964,42.82359,6.012,54.33281s.187,1.28712.68452,1.27.87532-.50094,1.14425-.64384c.26887-.14291.289-.46754.37227-.51657.08334-.049,1.01877.543,1.27763.56476.25893.02177.72195-.62393.86724-.63695.14535-.013.4605.19521.6997.17992.23919-.01536.36188-.55862.58406-.691a.89492.89492,0,0,1,.894.06231c.25843.19083.272.35962.42972.28053s.31079-.27393.51413-.34621.21972-.55013.37615-.66014.294.30394.4244.283c.13032-.02095.16268-.28344.43452-.30437a2.0562,2.0562,0,0,1,.83343.09246c.13284.078.34054.46542.54541.45678.20493-.00864.40282-.3.57841-.35154.17553-.05156.47986.14369.62372.14713.14393.0035,1.97812-.08007,2.025-.08593a15.52752,15.52752,0,0,0,1.40249-.83344,12.80423,12.80423,0,0,1-1.33562-2.14162,3.094,3.094,0,0,1-.25707-1.64707c.11456-.30348.72513-.68506,1.00117-.91741a15.63542,15.63542,0,0,0,1.83448-1.78362c.29886-.449-.03415-.61921.11075-1.21468a2.87575,2.87575,0,0,1,1.14442-1.57858c.32671-.08329.65978.08688.74574-.23464a11.28712,11.28712,0,0,1,.23632-1.82846c.12148-.11353,1.00858-.74707,1.49572-1.162a3.18658,3.18658,0,0,0-.45588-.11241c-.01165.00322-.0465.01581-.08531.02655a.93241.93241,0,0,1-.835-.071,1.02267,1.02267,0,0,1-.27542-.27252c-.01028-.02026-.04193-.03608-.15173-.05191a3.80964,3.80964,0,0,0-.54451-.01575c-.47561.005-.88673.01034-1.02147-.33993a1.112,1.112,0,0,1-.05707-.33071.95119.95119,0,0,0-.14977-.5228.42372.42372,0,0,0-.07253-.08807.97158.97158,0,0,1-.584-.34495,1.34972,1.34972,0,0,1-.363-.73045,1.59659,1.59659,0,0,0-.13854-.42442c-.0742-.15543-.12739-.29087-.17436-.41181-.10953-.27959-.14464-.35588-.29-.42651a3.20615,3.20615,0,0,1-.45859-.29239,1.28925,1.28925,0,0,0-.65969-.32646,2.0263,2.0263,0,0,0-.69629.244,1.74211,1.74211,0,0,1-.34488.15512c-.02959.02809-.07616.08-.10846.117-.20713.23374-.551.62426-1.0433.47044a3.60393,3.60393,0,0,1-1.33055-.9838,3.01335,3.01335,0,0,0-1.10972-.62786,2.92221,2.92221,0,0,1-1.13714-.27745l-.13359-.108c-.04117-.00581-.09213-.01236-.15385-.01962l-.26154-.02865a2.76928,2.76928,0,0,1-1.134-.34592.98578.98578,0,0,0-.54764-.10262.72961.72961,0,0,1-.753-.34563,1.37844,1.37844,0,0,1-.22579-.59417.37542.37542,0,0,0-.23333-.34782.37484.37484,0,1,1,.37656-.64824,1.08682,1.08682,0,0,1,.59391.86244.65865.65865,0,0,0,.10311.29636,2.33227,2.33227,0,0,1,.99542.196,2.09018,2.09018,0,0,0,.89991.28336l.27622.03025c.30374.0364.59473.07116.70776.295a3.59092,3.59092,0,0,0,.66787.10549,3.4283,3.4283,0,0,1,1.60873.85672,3.1218,3.1218,0,0,0,1.018.78937,1.60425,1.60425,0,0,0,.25549-.25351.849.849,0,0,1,.48861-.34625c.0339-.01159.09741-.05029.17551-.09131a2.47555,2.47555,0,0,1,1.04678-.33083,1.89872,1.89872,0,0,1,1.09892.46889,2.47107,2.47107,0,0,0,.34557.22585,1.29175,1.29175,0,0,1,.66143.82755c.04072.10546.08666.22447.15154.35864a2.3583,2.3583,0,0,1,.19653.59588.6298.6298,0,0,0,.18137.3794c.09037.09837.11786.10452.17091.1159a.82013.82013,0,0,1,.55.39562,1.65554,1.65554,0,0,1,.27953.86929c.09877.00438.22669.00217.32338.00172a4.7494,4.7494,0,0,1,.658.02269.83341.83341,0,0,1,.65557.35685.28445.28445,0,0,0,.08721.08965c.0318.02168.11037-.00079.21027-.02965a1.01175,1.01175,0,0,1,.37091-.05124,4.586,4.586,0,0,1,.6664.16414.3558.3558,0,0,1,.04519.02506,2.51961,2.51961,0,0,1,.0465-.808c.1075-.20935.52693-.342.32278-.6187a8.51278,8.51278,0,0,1-.8224-1.337c-.00821-.14077-.06124-.57159.02528-.68175.08652-.11021.46525-.1807.6054-.40025s.02678-.43281.22094-.55981c.19411-.12694,1.193-.18941,1.24768-.26123a.83876.83876,0,0,1,.37408-.44615c.27392-.12893.555-.53674.94337-.53389a.54819.54819,0,0,0,.56994-.50274c.00161-.18791-.41164-.68492-.32132-.83126.09032-.14627.53086-.56434.78371-.47045.25284.094,1.36395.94939,1.50866.97711.14478.02772.46178.18266.57286.11725.11114-.0654-.35479-.66758-.46479-.80887-.11-.14135-.57972-.64319-.53274-.76964a5.12154,5.12154,0,0,1,.475-.54421c.11518-.15318.44049-.16751.44.0642-.00045.23178.28649.43759.43858.509s.328-.15847.52842-.15724c.20047.0013.33253.023.26791.19378a3.5041,3.5041,0,0,0-.17473.53045c.00738.04365.436.152.55817.02994.12225-.122.127-.6858.23841-.7387.11145-.0529.22.28264.39134.37227.17129.0897.40151.02762.34518-.22148-.05626-.24917-.30755-.531-.19238-.93471a12.05886,12.05886,0,0,1,1.63633-2.57728,2.35521,2.35521,0,0,0,.6372-1.95115c-.07969-.93746-.16064-1.17032-.00289-1.2494s.36784-.31919.454-.25552c.08614.06361.206.35186.30226.44336.09624.09157.69922-.21467.761-.37592.06175-.16126.1547-.57691.05287-.518-.1019.05889-.68732.31774-.69386.05488-.00654-.26292-.06726-1.19144.08062-1.28909s.99313-.10927,1.12578-.44135a1.75949,1.75949,0,0,0-.022-1.01094,3.59877,3.59877,0,0,1,.05419-1.34795c.111-.32214.418-.56777.47873-.895.06079-.32718.15624-.768.065-.90974-.09121-.14182-.55168-.27438-.33933-.549a.82322.82322,0,0,1,.66146-.34841c.26229-.03156.41656-.12308.28565-.35158-.131-.22844-.42171-.334-.3818-.49157.03992-.15753.2445-.24407.17644-.46156s-.40431-.14025-.24828-.41345.45284-.1741.31253-.52759a3.39843,3.39843,0,0,1-.16279-.75381c-.09858-.436-.17011-.29011-.06234-.74374a1.99907,1.99907,0,0,1,.53191-1.15c.42019-.48021-.02879-.779.54256-1.22543.57134-.44636.73021-.10267,1.00251-.48524s.01908-.36686.04609-.79033a14.504,14.504,0,0,1,.03655-1.551,1.77216,1.77216,0,0,0-.64317-1.30862c-.422-.34648-.6047-1.83568.09655-1.78268.70118.053.4109-.47527.59363-.68179.18278-.20651,1.00414-.92529.84649-1.47257a2.72985,2.72985,0,0,0-.65837-1.28632c-.32058-.29888-.97707-1.00908-.99674-1.29671a12.17288,12.17288,0,0,0,.12315-1.84439c-.109-.35427.43172-1.02534.879-1.17427a1.9357,1.9357,0,0,0,1.18-.90617A1.24612,1.24612,0,0,0,195.25388,71.45606Z"/><path class="cls-3" d="M177.25488,115.15549a1.01176,1.01176,0,0,0-.37091.05123c-.0999.02886-.17847.05133-.21027.02966a.28448.28448,0,0,1-.08721-.08966.8334.8334,0,0,0-.65557-.35684,4.74933,4.74933,0,0,0-.658-.0227c-.09669.00045-.22461.00266-.32338-.00172a1.65559,1.65559,0,0,0-.27953-.86929.82016.82016,0,0,0-.55-.39562c-.05316-.01137-.08054-.01753-.17091-.1159a.62981.62981,0,0,1-.18137-.37939,2.35805,2.35805,0,0,0-.19653-.59588c-.06488-.13417-.11082-.25318-.15154-.35865a1.29178,1.29178,0,0,0-.66142-.82755,2.4698,2.4698,0,0,1-.34557-.22584,1.89878,1.89878,0,0,0-1.09893-.4689,2.47569,2.47569,0,0,0-1.04678.33084c-.0781.041-.14161.07972-.17551.09131a.84894.84894,0,0,0-.48861.34624,1.608,1.608,0,0,1-.25549.25351,3.12176,3.12176,0,0,1-1.018-.78937,3.42839,3.42839,0,0,0-1.60873-.85672,3.58938,3.58938,0,0,1-.66787-.10549c-.113-.22382-.404-.25858-.70775-.295l-.27623-.03024a2.09032,2.09032,0,0,1-.89991-.28336,2.33231,2.33231,0,0,0-.99542-.196.65869.65869,0,0,1-.10311-.29635,1.08683,1.08683,0,0,0-.59391-.86245.37484.37484,0,1,0-.37656.64824.37543.37543,0,0,1,.23333.34782,1.37838,1.37838,0,0,0,.2258.59418.72963.72963,0,0,0,.753.34563.98575.98575,0,0,1,.54764.10261,2.76912,2.76912,0,0,0,1.134.34592l.26154.02866c.06172.00725.11268.0138.15385.01961l.13359.108a2.92246,2.92246,0,0,0,1.13714.27746,3.01316,3.01316,0,0,1,1.10972.62785,3.60393,3.60393,0,0,0,1.33055.9838c.49226.15382.83617-.23669,1.04331-.47044.03229-.03694.07886-.0889.10845-.117a1.74209,1.74209,0,0,0,.34488-.15511,2.02612,2.02612,0,0,1,.69629-.244,1.28928,1.28928,0,0,1,.65969.32647,3.20791,3.20791,0,0,0,.45859.29239c.14536.07062.18047.14692.29.42651.047.12094.10016.25637.17437.4118a1.59688,1.59688,0,0,1,.13853.42442,1.34965,1.34965,0,0,0,.363.73045.97161.97161,0,0,0,.584.34495.42412.42412,0,0,1,.07253.08807.9511.9511,0,0,1,.14977.5228,1.11207,1.11207,0,0,0,.05707.33072c.13474.35027.54586.34492,1.02147.33992a3.81111,3.81111,0,0,1,.54451.01575c.1098.01583.14146.03165.15173.05191a1.02282,1.02282,0,0,0,.27542.27253.9324.9324,0,0,0,.835.071c.03881-.01073.07366-.02332.08531-.02655a3.19271,3.19271,0,0,1,.45594.11241l-.00024.00013.00024-.00013a1.17016,1.17016,0,0,0,.33671-.66959.36.36,0,0,0-.04519-.02507A4.58621,4.58621,0,0,0,177.25488,115.15549Z"/><path class="cls-2" d="M81.62891,122.90221a1.98561,1.98561,0,0,1-.93164,1.64648,6.14855,6.14855,0,0,1-2.46192.97168,9.06884,9.06884,0,0,1-.78223,2.22364c-.085,0-.18359-.06739-.29785-.20313a.63174.63174,0,0,1-.17089-.40429,5.70769,5.70769,0,0,1,.26171-1.07618,17.74584,17.74584,0,0,0,.84571-3.75293.53288.53288,0,0,1-.21582-.35937c0-.15039.20312-.29395.61132-.43262a3.65863,3.65863,0,0,1,1.16993-.207,2.20624,2.20624,0,0,1,1.418.44141A1.40276,1.40276,0,0,1,81.62891,122.90221Zm-.792.05371a.81886.81886,0,0,0-.30175-.65234,1.082,1.082,0,0,0-.72461-.25684,2.59988,2.59988,0,0,0-1.02637.27051.88862.88862,0,0,1,.09082.36816,10.78989,10.78989,0,0,1-.44141,2.13379,4.91961,4.91961,0,0,0,1.74121-.79687A1.39375,1.39375,0,0,0,80.83691,122.95592Z"/><path class="cls-2" d="M85.02148,123.33385c.02344-.03613.07618-.05371.15723-.05371s.17969.07813.29688.2334a.75934.75934,0,0,1,.17578.45019,13.28274,13.28274,0,0,1-.39551,1.38575q-.397,1.27-.61231,2.0166c-.07226.252-.17382.37793-.30664.37793a.246.246,0,0,1-.19726-.09961.58024.58024,0,0,1-.08106-.35938,3.94054,3.94054,0,0,1,.207-.94531,4.55614,4.55614,0,0,1-.81933,1.00781,1.26869,1.26869,0,0,1-.80567.39649.94774.94774,0,0,1-.68847-.3418,1.0248,1.0248,0,0,1-.32422-.70215,6.15046,6.15046,0,0,1,.5-2.13769q.49951-1.2832.832-1.28223a.35754.35754,0,0,1,.28418.14844.51555.51555,0,0,1,.12109.33691,2.69769,2.69769,0,0,1-.24316.58106,12.17324,12.17324,0,0,0-.48535,1.16992,3.5162,3.5162,0,0,0-.24317,1.17383.33105.33105,0,0,0,.08985.23925.28779.28779,0,0,0,.21582.09375q.34277,0,.81445-.60253a7.67159,7.67159,0,0,0,.85938-1.4043,8.88723,8.88723,0,0,0,.57617-1.48438A.69062.69062,0,0,1,85.02148,123.33385Z"/><path class="cls-2" d="M88.38281,123.995q.54492-.71484.8916-.71484a.87273.87273,0,0,1,.65625.36816,1.20016,1.20016,0,0,1,.31055.78321,5.396,5.396,0,0,1-.29687,1.584q-.53907,1.72852-.97168,1.72852c-.13184,0-.19825-.08985-.19825-.27051a3.19112,3.19112,0,0,1,.19336-.76953q.19337-.58008.36035-1.14258a3.3279,3.3279,0,0,0,.166-.8457.80505.80505,0,0,0-.085-.41895c-.05762-.08984-.11426-.13476-.1709-.13476a.33683.33683,0,0,0-.17578.05371.90656.90656,0,0,0-.20215.17968c-.07519.085-.14551.167-.21191.24805a4.24253,4.24253,0,0,0-.24707.34668c-.09961.14942-.18164.27734-.24805.38184q-.09961.15821-.28809.45508c-.126.19824-.22168.34765-.28808.45019q-.09815.15234-.26074.41309c-.1084.1748-.19336.30957-.25684.40527-.0625.09668-.13281.20117-.21094.31543q-.22559.33252-.35547.333c-.08691,0-.1875-.06739-.30175-.20313a.587.587,0,0,1-.1709-.35547,1.24017,1.24017,0,0,1,.0625-.24218q.17139-.523.3789-1.292a7.27045,7.27045,0,0,0,.22461-1.75c.01758-.43847.08106-.65722.18848-.65722a.55806.55806,0,0,1,.39648.207.64476.64476,0,0,1,.19825.4541,5.79488,5.79488,0,0,1-.14844.9541,13.15888,13.15888,0,0,1-.34668,1.31836A23.8314,23.8314,0,0,1,88.38281,123.995Z"/><path class="cls-2" d="M91.89746,126.84362c0,.11425.06543.1709.19824.1709a2.352,2.352,0,0,0,.832-.19336,3.83548,3.83548,0,0,1,.54493-.19336c.10742,0,.16211.05664.16211.17089q0,.26075-.53614.60352a1.85162,1.85162,0,0,1-.97168.3418,1.103,1.103,0,0,1-.72461-.23828.65833.65833,0,0,1-.28808-.49121,2.52317,2.52317,0,0,1,.1084-.64356q.10693-.39111.31054-1.03516.20216-.64307.31934-1.0664a3.12874,3.12874,0,0,1-.56738.09961.39717.39717,0,0,1-.28321-.14844.43064.43064,0,0,1-.13965-.28418q0-.21533,1.16993-.41406a6.29284,6.29284,0,0,0,.16211-1.32227c0-.18066.05957-.27051.17968-.27051a.64152.64152,0,0,1,.37793.19336.56831.56831,0,0,1,.22559.43653,4.16848,4.16848,0,0,1-.15332.85547q.5127-.04542.81933-.04493c.35938,0,.54.07813.54.2334,0,.09082-.09765.165-.293.22559q-.29149.08936-1.22851.27832-.189.71192-.47656,1.625A5.89584,5.89584,0,0,0,91.89746,126.84362Z"/><path class="cls-2" d="M97.51367,123.68932a1.02872,1.02872,0,0,1,.11719,1.4082.3983.3983,0,0,1,.10742.23438,5.55071,5.55071,0,0,1-.1123.86426c-.0752.40722-.12012.6748-.13477.80078s-.02832.22656-.04.30175c-.01269.07422-.02734.14844-.0459.21973q-.03514.22558-.16113.22559c-.1084,0-.19726-.09473-.26562-.28418a2.46754,2.46754,0,0,1-.12207-.7334q-.80127,1.01807-1.48438,1.01758a1.22463,1.22463,0,0,1-.81445-.35547.99816.99816,0,0,1-.40039-.7334,3.15782,3.15782,0,0,1,.3955-1.33691,5.24708,5.24708,0,0,1,1.02637-1.417,1.7735,1.7735,0,0,1,1.1875-.62109A.97168.97168,0,0,1,97.51367,123.68932Zm-.333,1.1748q0-.83788-.333-.83691a1.26313,1.26313,0,0,0-.81934.499,5.00249,5.00249,0,0,0-.792,1.12989,2.38426,2.38426,0,0,0-.32324.999.29432.29432,0,0,0,.126.24707.47741.47741,0,0,0,.29688.09473,1.43784,1.43784,0,0,0,.9541-.57129,3.13047,3.13047,0,0,0,.7373-1.39063.1889.1889,0,0,1,.15332-.16211Z"/><path class="cls-2" d="M106.07227,122.26256a1.98032,1.98032,0,0,0-1.25586.6211,5.47593,5.47593,0,0,0-1.17481,1.55273,3.77223,3.77223,0,0,0-.48535,1.73242.79582.79582,0,0,0,.207.55371.63655.63655,0,0,0,.48535.2295,1.72117,1.72117,0,0,0,1.0127-.47266,5.41738,5.41738,0,0,0,1.07519-1.21973,3.23466,3.23466,0,0,1-.74707.13477.665.665,0,0,1-.41406-.12988c-.11328-.08692-.1709-.16993-.1709-.24805q0-.14355.3877-.22949a4.63877,4.63877,0,0,1,.97168-.085.62389.62389,0,0,1,.52636.27441,1.04646,1.04646,0,0,1,.20215.63867,7.74175,7.74175,0,0,1-.44922,1.71484q-.45117,1.34913-.67968,1.34961c-.15332,0-.2295-.08691-.2295-.26074a2.51516,2.51516,0,0,1,.12989-.68359q.13036-.43213.27539-.88672.14355-.45409.2334-.74316a4.16352,4.16352,0,0,1-.999,1.18359,1.77583,1.77583,0,0,1-1.084.43652,1.51487,1.51487,0,0,1-1.04-.49023,1.46877,1.46877,0,0,1-.5127-1.0752,4.47786,4.47786,0,0,1,.57618-2.02539,6.734,6.734,0,0,1,1.44921-1.91211A2.52553,2.52553,0,0,1,106,121.42565a.66415.66415,0,0,1,.49512.30176.88313.88313,0,0,1,.24316.48632c0,.12305-.0332.1836-.09961.1836a1.0978,1.0978,0,0,1-.19824-.06739A.991.991,0,0,0,106.07227,122.26256Z"/><path class="cls-2" d="M108.05664,124.89049a3.33068,3.33068,0,0,1,.81836-1.15625,1.56452,1.56452,0,0,1,1.04395-.4541,1.09908,1.09908,0,0,1,.8955.4541,1.726,1.726,0,0,1,.36035,1.10742,3.1542,3.1542,0,0,1-.31445,1.332,3.10114,3.10114,0,0,1-.86914,1.125,1.84516,1.84516,0,0,1-1.1748.44532.916.916,0,0,1-.76465-.42285,1.78966,1.78966,0,0,1-.30567-1.07618A3.34578,3.34578,0,0,1,108.05664,124.89049Zm2.36231-.08105a1.71112,1.71112,0,0,0-.09864-.58008.78179.78179,0,0,0-.28808-.40039,1.84263,1.84263,0,0,0-1.06641.958,3.022,3.022,0,0,0-.44629,1.48046c0,.4629.11426.75.34277.86426a1.69124,1.69124,0,0,0,1.10254-.88672A2.81955,2.81955,0,0,0,110.419,124.80944Z"/><path class="cls-2" d="M112.31836,124.3778l-.02734-.67481q0-.42333.19824-.42285a.42706.42706,0,0,1,.32812.21973.8731.8731,0,0,1,.15723.52246,4.30757,4.30757,0,0,1-.01758.4541q.78369-1.188,1.48535-1.1875.44092,0,.44043.21582a.26718.26718,0,0,1-.09863.19824,1.70086,1.70086,0,0,1-.31543.207,2.0284,2.0284,0,0,0-.80566.63379,3.83408,3.83408,0,0,0-.53516.96778q-.20655.54052-.32813.90918-.12158.36914-.18457.57617c-.042.13769-.08984.27246-.14453.40527q-.14355.35889-.333.35938a.27985.27985,0,0,1-.24708-.17579.71027.71027,0,0,1-.09472-.34179,2.85629,2.85629,0,0,1,.15332-.66114A7.10569,7.10569,0,0,0,112.31836,124.3778Z"/><path class="cls-2" d="M118.6084,120.75963c.0957,0,.21484.08887.35547.26563a.82412.82412,0,0,1,.21191.5,10.36019,10.36019,0,0,1-.22558,1.32715q-.22413,1.09277-.52149,2.26367-.64893,2.62793-.85547,2.62793a.4068.4068,0,0,1-.27441-.15821.43949.43949,0,0,1-.14844-.27441,3.39494,3.39494,0,0,1,.06348-.46777,2.40652,2.40652,0,0,1-1.53907.90039.942.942,0,0,1-.71582-.36035,1.11976,1.11976,0,0,1-.31933-.74707,3.73633,3.73633,0,0,1,.30176-1.32715,4.55861,4.55861,0,0,1,.86816-1.39942,1.62876,1.62876,0,0,1,1.20605-.62988q.63869,0,.89063.76465a16.49413,16.49413,0,0,0,.50391-3.01465C118.41016,120.84948,118.47656,120.75963,118.6084,120.75963Zm-.99024,4.41895a1.8105,1.8105,0,0,0-.166-.81836c-.11133-.22266-.24512-.333-.40039-.333a1.09828,1.09828,0,0,0-.792.47656,3.78013,3.78013,0,0,0-.64356,1.09375,3.03217,3.03217,0,0,0-.23828,1.06641.32361.32361,0,0,0,.11621.26074.41759.41759,0,0,0,.2793.09863,1.71194,1.71194,0,0,0,.94922-.5039,2.96278,2.96278,0,0,0,.86914-1.1875l.02636-.1084Z"/><path class="cls-2" d="M122.38867,123.68932a1.02872,1.02872,0,0,1,.11719,1.4082.3983.3983,0,0,1,.10742.23438,5.55071,5.55071,0,0,1-.1123.86426c-.0752.40722-.12012.6748-.13477.80078s-.02832.22656-.04.30175c-.01269.07422-.02734.14844-.0459.21973q-.03514.22558-.16113.22559c-.1084,0-.19726-.09473-.26562-.28418a2.46754,2.46754,0,0,1-.12207-.7334q-.80127,1.01807-1.48438,1.01758a1.22463,1.22463,0,0,1-.81445-.35547.99816.99816,0,0,1-.40039-.7334,3.15782,3.15782,0,0,1,.3955-1.33691,5.24708,5.24708,0,0,1,1.02637-1.417,1.7735,1.7735,0,0,1,1.1875-.62109A.97168.97168,0,0,1,122.38867,123.68932Zm-.333,1.1748q0-.83788-.333-.83691a1.26313,1.26313,0,0,0-.81934.499,5.00249,5.00249,0,0,0-.792,1.12989,2.38426,2.38426,0,0,0-.32324.999.29432.29432,0,0,0,.126.24707.47741.47741,0,0,0,.29688.09473,1.43784,1.43784,0,0,0,.9541-.57129,3.13047,3.13047,0,0,0,.7373-1.39063.1889.1889,0,0,1,.15332-.16211Z"/><path class="cls-2" d="M124.75586,127.6444a1.979,1.979,0,0,1-.48633,1.19336q-.48633.624-.83691.625c-.12012,0-.17969-.042-.17969-.126a.66533.66533,0,0,1,.18848-.32422,1.95141,1.95141,0,0,0,.56738-1.125.29917.29917,0,0,0-.11328-.23828c-.07422-.06348-.15137-.12109-.22949-.17578a.23975.23975,0,0,1-.11622-.20215.53535.53535,0,0,1,.15235-.30566.42883.42883,0,0,1,.32422-.18457.64746.64746,0,0,1,.50879.26562A.91309.91309,0,0,1,124.75586,127.6444Z"/><path class="cls-2" d="M134.02539,125.59264a1.41321,1.41321,0,0,1-.54883,1.03027,4.05049,4.05049,0,0,1-1.42187.80176,5.41724,5.41724,0,0,1-1.78223.30078,1.59954,1.59954,0,0,1-.94922-.29687c-.27929-.19824-.41894-.38184-.41894-.55371,0-.1709.05078-.25586.15332-.25586a1.98027,1.98027,0,0,1,.35547.19336,1.34265,1.34265,0,0,0,.67089.20215.64888.64888,0,0,1-.23925-.2334.59555.59555,0,0,1-.11231-.32422,4.66657,4.66657,0,0,1,.21582-.85547,12.47793,12.47793,0,0,0,.68457-3.249h-.07226a.46353.46353,0,0,1-.333-.20215.57856.57856,0,0,1-.1709-.32813c0-.10254.127-.19043.38281-.26562a3.29106,3.29106,0,0,1,.92188-.11231,4.43908,4.43908,0,0,1,1.94433.3418,1.07094,1.07094,0,0,1,.6836.99023,1.34186,1.34186,0,0,1-.4541.98047,3.26964,3.26964,0,0,1-1.32715.71094l.08105.00879a2.50005,2.50005,0,0,1,1.2461.36914A.9087.9087,0,0,1,134.02539,125.59264Zm-.7832-.03613q0-.26954-.625-.4541a4.38952,4.38952,0,0,0-1.24707-.18457.517.517,0,0,1-.42285-.252,11.37423,11.37423,0,0,1-.71973,2.34864,5.117,5.117,0,0,0,1.34082-.2295,4.09919,4.09919,0,0,0,1.18848-.55371Q133.24316,125.89,133.24219,125.55651Zm-.36426-3.19922a1.48483,1.48483,0,0,0-.72852-.167,6.12314,6.12314,0,0,0-1.04.10839.78189.78189,0,0,1,.252.51758,9.98675,9.98675,0,0,1-.31445,1.48926,4.18323,4.18323,0,0,1,.6748-.31055,7.80671,7.80671,0,0,0,.72461-.31054,2.05891,2.05891,0,0,0,.38672-.23828,1.26812,1.26812,0,0,0,.23437-.27442.63623.63623,0,0,0,.11231-.35058A.512.512,0,0,0,132.87793,122.35729Z"/><path class="cls-2" d="M138.4541,124.7694a.89294.89294,0,0,1-.51758.7832,2.27891,2.27891,0,0,1-1.16992.30078,4.52877,4.52877,0,0,1-1.18359-.14355,2.35828,2.35828,0,0,0-.126.70605.60784.60784,0,0,0,.19336.48145.95574.95574,0,0,0,.63867.17187,2.87714,2.87714,0,0,0,.918-.1582,4.77469,4.77469,0,0,1,.51758-.15723c.15625,0,.23437.05957.23437.17969q0,.24317-.54882.52637a2.32472,2.32472,0,0,1-1.07129.28418,1.59075,1.59075,0,0,1-1.14258-.419,1.39424,1.39424,0,0,1-.44141-1.05762,3.03928,3.03928,0,0,1,.3418-1.33593,3.76928,3.76928,0,0,1,.88184-1.17481,1.63345,1.63345,0,0,1,1.07128-.47656,1.26884,1.26884,0,0,1,.96778.50391A1.52541,1.52541,0,0,1,138.4541,124.7694Zm-1.35937-.77832a1.02879,1.02879,0,0,0-.69239.34668,3.01233,3.01233,0,0,0-.6123.85937,3.76654,3.76654,0,0,0,.81934.08106,2.00645,2.00645,0,0,0,.80078-.14844c.22754-.09961.34179-.22949.34179-.3916a.75951.75951,0,0,0-.2207-.49512A.60441.60441,0,0,0,137.09473,123.99108Z"/><path class="cls-2" d="M140.68555,121.51549a18.27554,18.27554,0,0,1-.70215,4.39258q-.44971,1.83545-.62988,1.83594c-.084,0-.18164-.06641-.292-.19824a.57226.57226,0,0,1-.167-.30567,10.975,10.975,0,0,1,.26172-1.11621q.26075-1.00781.52148-2.47949a15.3393,15.3393,0,0,0,.26075-2.65039.34565.34565,0,0,1,.03613-.18067.17725.17725,0,0,1,.15332-.05371q.11718,0,.33691.25684A.77434.77434,0,0,1,140.68555,121.51549Z"/><path class="cls-2" d="M142.22461,123.28014a.41786.41786,0,0,1,.32422.207.68509.68509,0,0,1,.15332.4043,7.55233,7.55233,0,0,1-.26172,1.18359q-.26074.98585-.65625,2.21-.15381.44971-.3877.4502a.27939.27939,0,0,1-.21582-.10352.35071.35071,0,0,1-.08984-.23437,2.03149,2.03149,0,0,1,.06738-.41406q.06738-.28419.19825-.75586c.08691-.31543.15625-.57129.207-.76954s.10351-.42187.15722-.67089.09766-.44922.13086-.60254c.03223-.15332.07032-.30762.11231-.46387Q142.08984,123.27965,142.22461,123.28014Zm.04492-1.27832a.50477.50477,0,0,1,.14453-.3418.40011.40011,0,0,1,.292-.16211q.14941,0,.35547.36426a1.30014,1.30014,0,0,1,.207.60742.21026.21026,0,0,1-.08105.16211.25376.25376,0,0,1-.1709.07227.73892.73892,0,0,1-.48144-.26074A.71379.71379,0,0,1,142.26953,122.00182Z"/><path class="cls-2" d="M143.8623,123.37389a4.9293,4.9293,0,0,1,1.085-.09375,3.01351,3.01351,0,0,1,1.1289.17969.84407.84407,0,0,1,.36524.32812.8009.8009,0,0,1,.166.41016,1.23489,1.23489,0,0,1-.418.78223,5.7508,5.7508,0,0,1-.91406.7832q-.49512.34277-.91309.65723-.41894.31494-.41894.42285c0,.10254.07812.15332.23437.15332q.5127,0,1.25977-.07227.74707-.07178.89062-.07226c.23438,0,.35157.06933.35157.207q0,.28857-.90039.48633a8.08668,8.08668,0,0,1-1.73731.19824,1.04012,1.04012,0,0,1-.71094-.293.78686.78686,0,0,1-.32324-.53516q0-.24316.4541-.65234a9.42191,9.42191,0,0,1,.99414-.77832q1.4502-1.00782,1.44922-1.26074c0-.11329-.30566-.1709-.918-.1709a3.88717,3.88717,0,0,0-.55761.0498,3.70784,3.70784,0,0,1-.48145.04981.45229.45229,0,0,1-.31543-.18946.536.536,0,0,1-.166-.32421Q143.4668,123.46959,143.8623,123.37389Z"/><path class="cls-2" d="M150.81055,124.7694a.89294.89294,0,0,1-.51758.7832,2.27893,2.27893,0,0,1-1.16992.30078,4.5289,4.5289,0,0,1-1.1836-.14355,2.35856,2.35856,0,0,0-.126.70605.60784.60784,0,0,0,.19336.48145.9557.9557,0,0,0,.63867.17187,2.87718,2.87718,0,0,0,.918-.1582,4.7757,4.7757,0,0,1,.51757-.15723c.15625,0,.23438.05957.23438.17969q0,.24317-.54883.52637a2.32469,2.32469,0,0,1-1.07129.28418,1.59079,1.59079,0,0,1-1.14258-.419,1.39427,1.39427,0,0,1-.4414-1.05762,3.0394,3.0394,0,0,1,.34179-1.33593,3.76944,3.76944,0,0,1,.88184-1.17481,1.63345,1.63345,0,0,1,1.07129-.47656,1.26882,1.26882,0,0,1,.96777.50391A1.52537,1.52537,0,0,1,150.81055,124.7694Zm-1.35938-.77832a1.02877,1.02877,0,0,0-.69238.34668,3.01216,3.01216,0,0,0-.61231.85937,3.76667,3.76667,0,0,0,.81934.08106,2.00641,2.00641,0,0,0,.80078-.14844c.22754-.09961.3418-.22949.3418-.3916a.75951.75951,0,0,0-.2207-.49512A.60445.60445,0,0,0,149.45117,123.99108Z"/></g></g></svg>